<?xml version="1.0" encoding="UTF-8" standalone="no"?>
<svg
   xmlns:dc="http://purl.org/dc/elements/1.1/"
   xmlns:cc="http://creativecommons.org/ns#"
   xmlns:rdf="http://www.w3.org/1999/02/22-rdf-syntax-ns#"
   xmlns:svg="http://www.w3.org/2000/svg"
   xmlns="http://www.w3.org/2000/svg"
   version="1.1"
   x="0px"
   y="0px"
   viewBox="0 0 46.583847 39.464977"
   enable-background="new 0 0 100 100"
   xml:space="preserve"
   id="svg1002"
   width="46.583847"
   height="39.464977"><metadata
     id="metadata1008"><rdf:RDF><cc:Work
         rdf:about=""><dc:format>image/svg+xml</dc:format><dc:type
           rdf:resource="http://purl.org/dc/dcmitype/StillImage" /><dc:title></dc:title></cc:Work></rdf:RDF></metadata><defs
     id="defs1006" /><path
     style="opacity:1;fill:#ff8080;fill-opacity:1;stroke:none;stroke-width:5.57143784;stroke-miterlimit:4;stroke-dasharray:none;stroke-opacity:1"
     d="m 147.7177,41.414285 a 28.564501,28.564501 0 0 0 0.0625,-1.263672 28.564501,28.564501 0 0 0 -0.008,-0.246093 28.564453,28.320312 0 0 1 -0.0547,1.509765 z"
     id="path1033" /><path
     style="fill:#ffffff;stroke-width:0.95435327"
     d="m 273.95799,38.907157 c -1.7217,0.02568 -3.50943,0.489098 -5.48882,1.364686 -6.93483,3.067594 -9.46132,11.521508 -5.31453,17.782948 1.04287,1.574676 1.9,2.445209 1.90263,1.934755 0.003,-0.510454 -0.11484,-0.114744 1.09016,1.70951 0.78499,1.188444 2.24249,1.241646 2.6064,1.217302 0.36391,-0.02359 3.15657,-2.053638 6.27629,-4.931975 l 5.67233,-5.233516 -2.09025,-2.090262 -2.09026,-2.090261 -11.40728,11.476578 -0.74592,-0.344268 6.35781,-6.150343 c 5.0953,-5.361348 5.15544,-5.490784 3.43103,-7.396229 -3.68578,-4.072726 0.26762,-1.712581 4.7441,2.832241 4.86488,4.939147 7.05689,5.761177 9.02817,3.385914 1.72433,-2.07769 0.40875,-4.806193 -4.32748,-8.975211 -3.39048,-2.984413 -6.25477,-4.432641 -9.30091,-4.491193 -0.11422,-0.002 -0.22872,-0.0026 -0.3435,-6.59e-4 z m 18.66914,0.02359 c -1.16795,-0.0052 -2.37364,0.155513 -3.60225,0.486343 -2.11159,0.568621 -4.10543,1.464556 -4.4307,1.990805 -0.32522,0.526286 0.73023,2.462085 2.34557,4.301849 3.4218,3.897215 3.61567,5.231497 1.09229,7.515169 -1.28072,1.159087 -2.669,1.488435 -4.5411,1.077257 -2.34434,-0.51492 -3.3664,0.08636 -7.82992,4.606031 -3.42179,3.46483 -4.94099,5.700862 -4.55543,6.705515 1.05651,2.753211 3.98657,1.565044 9.22741,-3.741691 2.85107,-2.886907 5.61563,-5.248898 6.1433,-5.248898 0.52765,0 -1.77216,2.755932 -5.11048,6.124168 -4.10823,4.145128 -5.88223,6.612255 -5.48983,7.634788 1.07823,2.809868 4.01738,1.533465 9.70625,-4.215384 3.11652,-3.149375 6.09761,-5.726004 6.62485,-5.726004 0.52726,0 -1.98855,2.969969 -5.59066,6.599907 -4.45989,4.494312 -6.36414,7.082204 -5.96901,8.111901 1.20414,3.137846 4.38038,1.222091 13.73436,-8.283466 12.12008,-12.316497 13.37758,-16.357804 7.32719,-23.548253 -2.41496,-2.870058 -5.57799,-4.375138 -9.08184,-4.390033 z"
     id="path1049" /><g
     style="fill:#ffffff"
     transform="matrix(0.98926992,0,0,0.98926992,-8.3647141,-16.624958)"
     id="g3536"><path
       id="path1044"
       d="m 43.586444,17.024996 c -0.815973,-0.02209 -1.621713,0.03472 -2.408099,0.168363 -0.786386,0.133649 -1.553241,0.343151 -2.292449,0.625833 -0.739201,0.282682 -1.451366,0.637886 -2.125793,1.062894 -0.674419,0.425008 -1.310953,0.920622 -1.903001,1.481251 l -1.965937,1.838383 8.487856,8.873896 c 0.348785,0.367716 0.615165,0.790679 0.790799,1.248264 0.175626,0.457586 0.260041,0.949666 0.246589,1.45404 -0.01372,0.504649 -0.125324,0.991508 -0.324824,1.438735 -0.1995,0.447227 -0.485951,0.853786 -0.85201,1.200646 -0.366619,0.347135 -0.790408,0.616114 -1.248271,0.792494 -0.45786,0.176381 -0.950158,0.26015 -1.452339,0.24149 -0.504645,-0.01344 -0.991441,-0.125116 -1.438731,-0.324821 -0.4473,-0.199704 -0.855216,-0.487098 -1.202348,-0.853717 L 34.98805,35.31189 c -0.01968,0.0236 -0.03026,0.05172 -0.05272,0.07312 L 23.262191,46.420417 c -0.01977,0.01921 -0.04373,0.03121 -0.06463,0.04932 -0.006,0.0066 -0.0084,0.01549 -0.01531,0.02211 -0.340558,0.322986 -0.517968,0.743403 -0.530593,1.168334 -0.01263,0.424932 0.140082,0.854393 0.460874,1.193844 0.31063,0.328748 0.731399,0.517368 1.183635,0.528897 0.448945,0.01701 0.882104,-0.153636 1.210854,-0.464273 L 37.239689,37.81692 c 0.164645,-0.155593 0.377667,-0.230385 0.588417,-0.224484 0.21075,0.0059 0.418392,0.09357 0.574808,0.258496 0.155877,0.164648 0.230315,0.375967 0.22449,0.586718 -0.0058,0.210751 -0.09133,0.420647 -0.256802,0.576515 L 26.70087,50.054667 c -8.71e-4,0.0011 -0.0011,0.0023 -0.0017,0.0034 -0.334227,0.31695 -0.503156,0.74562 -0.506787,1.181939 -0.0037,0.436319 0.157897,0.881324 0.486377,1.229557 0.321062,0.338354 0.749859,0.515394 1.183636,0.527195 0.433786,0.0118 0.8731,-0.141231 1.212552,-0.462571 L 40.712333,41.510688 c 0.164367,-0.156141 0.376022,-0.231879 0.58672,-0.226184 0.21068,0.0057 0.41894,0.0916 0.574808,0.256795 0.156399,0.164923 0.231883,0.377805 0.226188,0.588419 -0.0057,0.210613 -0.09133,0.420372 -0.256794,0.576514 L 30.205828,53.728026 c -0.04665,0.04446 -0.100804,0.07674 -0.149652,0.117344 -0.0099,0.0099 -0.01389,0.02244 -0.02381,0.03231 -0.293347,0.278257 -0.533126,0.632719 -0.612223,1.010176 -0.0791,0.377457 0.003,0.77807 0.355429,1.149626 0.361133,0.381437 0.766133,0.487652 1.149625,0.433662 0.383493,-0.05399 0.745418,-0.269025 1.020384,-0.528897 l 7.355227,-6.902864 11.97245,-11.33301 c 0.600425,-0.568039 1.138437,-1.17995 1.612205,-1.826479 0.473762,-0.646529 0.882182,-1.327633 1.221052,-2.035656 0.338867,-0.708024 0.608678,-1.442994 0.8044,-2.195516 0.195713,-0.752522 0.317918,-1.522631 0.362229,-2.302656 0.04502,-0.787157 0.0088,-1.567232 -0.105435,-2.329865 -0.114274,-0.762633 -0.306043,-1.508778 -0.57311,-2.229528 C 54.327522,24.065923 53.984203,23.370012 53.57081,22.7085 53.157426,22.04699 52.673399,21.42102 52.120176,20.836105 51.559544,20.244193 50.949305,19.7141 50.298797,19.252817 49.648286,18.791534 48.957071,18.398794 48.234231,18.07598 47.511391,17.753166 46.756821,17.500809 45.979196,17.324301 45.201553,17.147793 44.401279,17.047355 43.586404,17.02499 Z m -23.227228,0.0017 c -1.433402,0.05111 -2.866221,0.367828 -4.232874,0.948952 -1.366652,0.581125 -2.666608,1.425665 -3.834927,2.532241 -0.593764,0.562483 -1.113185,1.171363 -1.559475,1.814575 -0.446298,0.643211 -0.818593,1.320765 -1.117321,2.023752 -0.298719,0.702985 -0.524088,1.431603 -0.67515,2.173406 -0.151062,0.741805 -0.227973,1.497074 -0.231281,2.256739 -0.0033,0.759665 0.06633,1.522276 0.21088,2.278847 0.144523,0.756571 0.363971,1.507212 0.656438,2.239732 0.292468,0.732519 0.658111,1.448481 1.09861,2.135993 0.440499,0.687513 0.955558,1.346082 1.544176,1.967631 l 4.181849,4.435248 c 0.01811,0.01537 0.04085,0.0227 0.05783,0.04081 l 1.263568,1.343499 c 0.144888,-0.610298 0.458793,-1.188102 0.947251,-1.651314 L 30.403142,30.471928 28.813053,28.793405 c -0.300617,0.07464 -0.705077,0.141766 -1.19384,0.144553 -0.488772,0.0028 -1.061299,-0.05871 -1.702334,-0.23979 -0.641035,-0.181079 -1.349665,-0.482198 -2.107081,-0.959156 -0.757425,-0.476958 -1.565073,-1.130398 -2.402997,-2.015248 -0.15612,-0.164923 -0.230184,-0.377737 -0.224481,-0.588419 0.0057,-0.210681 0.0916,-0.418397 0.256794,-0.574814 0.165202,-0.155866 0.377876,-0.230246 0.588417,-0.224483 0.21055,0.0057 0.419828,0.0916 0.576515,0.256796 0.866605,0.915172 1.67414,1.532808 2.399592,1.943822 0.725452,0.411013 1.368011,0.615665 1.906406,0.704061 1.076806,0.176793 1.734132,-0.109925 1.787368,-0.134349 0.319965,-0.147636 0.709771,-0.08113 0.952354,0.175164 l 2.515233,2.656388 4.928434,5.202232 c 0.392418,0.413817 0.921705,0.650676 1.489747,0.664947 0.572422,0.01592 1.109945,-0.190904 1.523766,-0.583317 0.412714,-0.390766 0.647922,-0.919465 0.663247,-1.488052 0.01537,-0.568587 -0.191995,-1.107646 -0.583315,-1.520365 L 28.438912,19.931376 c -1.172159,-1.022605 -2.474849,-1.774971 -3.843426,-2.258439 -1.368568,-0.483467 -2.802867,-0.697349 -4.23627,-0.646241 z m 11.176546,14.64078 -11.736055,11.096622 c -0.338912,0.321067 -0.515468,0.749791 -0.527197,1.18364 -0.01173,0.43385 0.14151,0.871673 0.462572,1.21085 0.320792,0.33808 0.749728,0.515259 1.183635,0.527196 0.433934,0.01194 0.872831,-0.140355 1.212552,-0.460871 l 11.673137,-11.0371 c 0.02142,-0.02031 0.05123,-0.0278 0.07483,-0.04591 z"
       style="opacity:1;fill:#ffffff;fill-opacity:1;stroke:none;stroke-width:4.35361719;stroke-miterlimit:4;stroke-dasharray:none;stroke-opacity:1" /></g></svg>
