<?xml version="1.0" encoding="UTF-8" standalone="no"?>
<svg
   xmlns:dc="http://purl.org/dc/elements/1.1/"
   xmlns:cc="http://creativecommons.org/ns#"
   xmlns:rdf="http://www.w3.org/1999/02/22-rdf-syntax-ns#"
   xmlns:svg="http://www.w3.org/2000/svg"
   xmlns="http://www.w3.org/2000/svg"
   height="24.000006"
   width="24"
   version="1.1"
   id="svg4303"
   viewBox="0 0 24 24.000006">
  <metadata
     id="metadata4311">
    <rdf:RDF>
      <cc:Work
         rdf:about="">
        <dc:format>image/svg+xml</dc:format>
        <dc:type
           rdf:resource="http://purl.org/dc/dcmitype/StillImage" />
        <dc:title></dc:title>
      </cc:Work>
    </rdf:RDF>
  </metadata>
  <defs
     id="defs4309" />
  <path
     style="fill:#4d4d4d;fill-opacity:1"
     id="path4305"
     d="m 16.549091,12.000002 6.822954,-6.8229495 c 0.837273,-0.83728 0.837273,-2.19478 0,-3.03273 l -1.516363,-1.51637 c -0.837273,-0.83727 -2.194773,-0.83727 -3.032727,0 L 12,7.4509125 5.1770455,0.6279525 c -0.8372728,-0.83727 -2.1947728,-0.83727 -3.0327273,0 l -1.51636365,1.51637 c -0.83727273,0.83727 -0.83727273,2.19477 0,3.03273 l 6.82295455,6.8229495 -6.82295455,6.82295 c -0.83727273,0.83728 -0.83727273,2.19478 0,3.03273 l 1.51636365,1.51637 c 0.8372727,0.83727 2.1954545,0.83727 3.0327273,0 L 12,16.549092 l 6.822955,6.82296 c 0.837272,0.83727 2.195454,0.83727 3.032727,0 l 1.516363,-1.51637 c 0.837273,-0.83727 0.837273,-2.19477 0,-3.03273 l -6.822954,-6.82295 z" />
</svg>
