<svg
   xmlns="http://www.w3.org/2000/svg"
   viewBox="0 0 25.714287 18"
   width="25.714287"
   height="18">
  <path
     style="fill:#dee2e6;fill-opacity:1"
     d="m 3.8571429,7.714288 c 1.4183035,0 2.5714283,-1.153125 2.5714283,-2.571429 0,-1.418305 -1.1531248,-2.57143 -2.5714283,-2.57143 -1.4183036,0 -2.5714286,1.153125 -2.5714286,2.57143 0,1.418304 1.153125,2.571429 2.5714286,2.571429 z m 18.0000001,0 c 1.418303,0 2.571428,-1.153125 2.571428,-2.571429 0,-1.418305 -1.153125,-2.57143 -2.571428,-2.57143 -1.418304,0 -2.571429,1.153125 -2.571429,2.57143 0,1.418304 1.153125,2.571429 2.571429,2.571429 z M 23.142857,9 20.571429,9 c -0.707143,0 -1.345983,0.285266 -1.812054,0.747321 1.619196,0.887945 2.768304,2.49107 3.017411,4.395538 l 2.651785,0 c 0.711161,0 1.285715,-0.574555 1.285715,-1.285718 l 0,-1.285712 C 25.714286,10.153125 24.561161,9 23.142857,9 Z M 12.857143,9 c 2.487053,0 4.5,-2.012946 4.5,-4.5 0,-2.487054 -2.012947,-4.5 -4.5,-4.5 -2.487054,0 -4.5000001,2.012946 -4.5000001,4.5 0,2.487054 2.0129461,4.5 4.5000001,4.5 z m 3.085714,1.285712 -0.333482,0 c -0.835714,0.401788 -1.763839,0.642859 -2.752232,0.642859 -0.988393,0 -1.9125,-0.241071 -2.752232,-0.642859 l -0.3334822,0 c -2.5553576,0 -4.6285717,2.073217 -4.6285717,4.628576 l 0,1.157141 C 5.1428571,17.136163 6.0066962,18 7.0714288,18 l 11.5714282,0 c 1.064732,0 1.928572,-0.863837 1.928572,-1.928571 l 0,-1.157141 c 0,-2.555359 -2.073215,-4.628576 -4.628572,-4.628576 z M 6.9549109,9.747321 C 6.4888391,9.285266 5.85,9 5.1428571,9 L 2.5714286,9 C 1.153125,9 0,10.153125 0,11.571429 l 0,1.285712 c 0,0.711163 0.57455359,1.285718 1.2857143,1.285718 l 2.6477678,0 c 0.253125,-1.904468 1.4022322,-3.507593 3.0214288,-4.395538 z"
     id="path4" />
</svg>
