<svg
   xmlns="http://www.w3.org/2000/svg"
   viewBox="0 0 9.0311098 10.018564"
   height="35.498848"
   width="31.999996">
  <g
     transform="translate(-55.106573,-114.07433)"
     id="layer1">
    <path
       id="path4599"
       d="m 59.649757,114.0746 c -0.225838,0.004 -0.452693,0.0269 -0.678548,0.0709 -1.425321,0.2776 -2.679043,1.25236 -3.314484,2.57676 -0.446147,0.92988 -0.585012,1.60273 -0.543029,2.63117 0.05584,1.3678 0.526598,2.46448 1.46865,3.42116 0.404922,0.41121 0.644893,0.58173 1.194431,0.84874 0.378236,0.18379 0.866866,0.36382 1.085847,0.39999 0.613242,0.10129 1.04177,0.093 1.645206,-0.0316 0.815768,-0.1685 1.692181,-0.65206 1.906064,-1.0517 0.09483,-0.17719 0.07282,-0.17301 -0.218018,0.0416 -0.133118,0.0982 -0.269163,0.16188 -0.302213,0.14146 -0.03305,-0.0204 -0.129792,1.8e-4 -0.215048,0.0458 -0.107861,0.0577 -0.140047,0.0587 -0.105828,0.003 0.06734,-0.10895 5.04e-4,-0.0999 -0.260433,0.035 -0.121848,0.063 -0.199836,0.0794 -0.173269,0.0364 0.03299,-0.0534 -0.0046,-0.0591 -0.118659,-0.018 -0.09186,0.0331 -0.395074,0.10133 -0.673776,0.15154 -1.779015,0.32052 -3.904404,-1.03484 -4.471271,-2.85131 -0.210354,-0.67405 -0.223577,-2.0261 -0.02619,-2.68142 0.505083,-1.67685 1.797444,-2.84987 3.44608,-3.12785 0.580102,-0.0978 0.701426,-0.0973 1.205459,0.006 0.649575,0.13247 1.132495,0.35467 1.691863,0.77854 0.21898,0.16593 0.336068,0.23185 0.260222,0.14644 -0.15055,-0.16954 -0.089,-0.20919 0.100526,-0.0648 0.06532,0.0498 -0.02992,-0.049 -0.211549,-0.21939 -0.181627,-0.17045 -0.594325,-0.43979 -0.917138,-0.5985 -1.288754,-0.63358 -2.687664,-0.54495 -4.050399,0.25652 -0.401487,0.23612 -0.414083,0.23906 -0.190872,0.0457 0.131478,-0.1139 0.449401,-0.3096 0.706543,-0.43498 2.047338,-0.99824 4.299726,-0.27433 5.486495,1.76344 0.361957,0.62151 0.4465,0.68465 0.16012,0.11951 -0.775693,-1.53076 -2.305915,-2.46578 -3.88678,-2.43987 z m 1.645418,0.72924 c 0.0067,3.8e-4 0.01629,0.002 0.02874,0.006 0.209574,0.0586 0.9021,0.48797 0.97355,0.60358 0.07321,0.11846 0.0081,0.0949 -0.208156,-0.0752 -0.10736,-0.0845 -0.364242,-0.24924 -0.570811,-0.36626 -0.180749,-0.1024 -0.270416,-0.17106 -0.22332,-0.16797 z m 1.367913,0.9412 0.137957,0.16288 c 0.129594,0.15307 0.187797,0.19578 0.187797,0.13785 0,-0.0137 -0.07329,-0.087 -0.162877,-0.16287 z m -4.759593,0.77685 c -0.01,-0.003 -0.03231,0.0202 -0.06977,0.0658 -0.08656,0.10533 -0.120127,0.10715 -0.294473,0.0158 -0.108232,-0.0567 -0.196809,-0.0721 -0.196809,-0.0344 0,0.0378 0.04068,0.088 0.09045,0.11166 0.110716,0.0526 -0.1439,0.005 -0.34378,-0.0649 -0.128743,-0.0447 -0.131981,-0.0396 -0.02874,0.0463 0.132337,0.11015 0.134918,0.52571 0.004,0.6566 -0.04612,0.0461 -0.08288,0.11799 -0.08144,0.1598 0.0013,0.0418 0.06431,0.002 0.139973,-0.089 l 0.137533,-0.16489 0.110918,0.3459 c 0.110479,0.34443 0.110927,0.34477 0.09162,0.0733 -0.01091,-0.1535 0.01153,-0.26245 0.05132,-0.2492 0.03888,0.013 0.07679,0.16952 0.0843,0.34781 0.0075,0.1783 0.06787,0.42888 0.134034,0.55682 l 0.120249,0.23254 -0.219078,0 c -0.120464,0 -0.218972,0.0306 -0.218972,0.0679 0,0.0373 -0.08955,0.082 -0.199036,0.0992 -0.109489,0.0173 -0.06533,0.0239 0.09819,0.0146 l 0.297336,-0.0169 0.04719,0.732 c 0.02595,0.40256 0.067,0.82153 0.09119,0.93102 0.02419,0.1095 0.0734,0.19904 0.109327,0.19904 0.03593,0 0.04244,-0.0895 0.01442,-0.19904 -0.13181,-0.51512 0.05171,-0.73512 0.200097,-0.23986 0.04847,0.16179 0.115579,0.29415 0.149092,0.29415 0.07979,0 0.07693,-0.0521 -0.0122,-0.21865 -0.04025,-0.0752 -0.08935,-0.30918 -0.109115,-0.52002 -0.01977,-0.21083 -0.05204,-0.4648 -0.07158,-0.56434 -0.01955,-0.0995 -0.0072,-0.22497 0.02746,-0.27878 0.06038,-0.0938 0.612363,-0.25141 1.185524,-0.33848 l 0.271462,-0.0413 0,0.56657 c 0,0.47695 0.02286,0.58606 0.144745,0.69043 0.104524,0.0895 0.14485,0.2136 0.14485,0.44621 0,0.2756 0.09341,0.47857 0.180267,0.39171 0.01423,-0.0142 -0.01536,-0.24521 -0.06574,-0.51334 -0.05038,-0.26812 -0.07506,-0.50413 -0.05482,-0.52436 0.111667,-0.11167 0.2191,-2.1e-4 0.261388,0.27093 0.05758,0.36932 0.216188,0.68713 0.286308,0.57367 0.02693,-0.0436 0.01673,-0.13749 -0.02269,-0.20879 -0.07335,-0.13264 -0.439959,-1.40547 -0.439959,-1.5275 0,-0.0372 0.13841,-0.0643 0.307621,-0.0603 0.404216,0.009 0.534636,0.17456 0.596898,0.75595 0.04094,0.38228 0.06552,0.44256 0.151319,0.37135 0.05633,-0.0468 0.105688,-0.1543 0.109751,-0.23901 0.0055,-0.11406 0.02702,-0.093 0.08292,0.0812 0.04151,0.12939 0.103266,0.2353 0.137321,0.2353 0.101479,0 0.06426,-0.52125 -0.05949,-0.83252 -0.06331,-0.15926 -0.120732,-0.40358 -0.127566,-0.54292 -0.0079,-0.16222 -0.04543,-0.24625 -0.104237,-0.2335 -0.05051,0.0109 -0.07174,-0.0126 -0.04719,-0.0523 0.04722,-0.0764 0.612628,-0.25001 0.659992,-0.20265 0.01529,0.0153 0.03371,0.18172 0.04082,0.36987 0.0095,0.25221 0.03833,0.33234 0.109645,0.30497 0.07249,-0.0278 0.09671,0.0506 0.09671,0.31282 0,0.33285 0.195669,0.73146 0.359051,0.73146 0.09142,0 0.242705,-0.91848 0.19734,-1.19803 -0.0322,-0.19845 -0.01179,-0.26504 0.09968,-0.3247 0.162526,-0.087 0.186256,-0.21462 0.03987,-0.21462 -0.05635,0 -0.114513,-0.0961 -0.13255,-0.21897 -0.02599,-0.17712 -0.0034,-0.22484 0.118446,-0.25047 0.40048,-0.0842 0.406308,-0.1027 0.02418,-0.0765 -0.392229,0.0269 -0.411644,0.0206 -0.341237,-0.11092 0.05134,-0.0961 0.05108,-0.18346 -8.53e-4,-0.28048 -0.0581,-0.10856 -0.04927,-0.15545 0.03828,-0.20444 0.09843,-0.0551 0.09962,-0.0752 0.0092,-0.15026 -0.118487,-0.0983 -0.429607,-0.0118 -0.529457,0.14729 -0.08669,0.13812 -0.102255,0.55508 -0.02258,0.60432 0.14097,0.0871 0.06429,0.19306 -0.108373,0.14973 -0.09709,-0.0243 -0.195292,-0.0139 -0.218229,0.0232 -0.02294,0.0371 0.02948,0.078 0.116537,0.0908 0.08705,0.0128 0.17316,0.0685 0.191402,0.12385 0.01824,0.0554 10e-4,0.0806 -0.03828,0.0563 -0.03931,-0.0243 -0.169495,-0.016 -0.289277,0.0183 -0.119779,0.0344 -0.261806,0.0353 -0.315574,0.002 -0.05733,-0.0355 -0.141912,-0.0247 -0.20455,0.026 -0.08374,0.0677 -0.095,0.0668 -0.05238,-0.004 0.03626,-0.0603 0.0061,-0.0906 -0.09045,-0.0906 -0.171941,0 -0.241876,-0.0907 -0.184722,-0.23965 0.05164,-0.13458 0.297977,-0.20321 0.525004,-0.14623 0.145941,0.0366 0.165687,0.0755 0.129898,0.25439 -0.02832,0.14163 -0.01644,0.19522 0.03605,0.16277 0.04305,-0.0266 0.06339,-0.1499 0.04517,-0.274 -0.01821,-0.12411 0.0023,-0.28237 0.04549,-0.35163 0.139162,-0.22284 -0.03642,-0.30785 -0.397331,-0.19246 -0.52825,0.16888 -0.734358,0.75768 -0.328406,0.93813 0.122461,0.0544 0.09348,0.0621 -0.133079,0.0349 -0.270266,-0.0325 -0.279877,-0.0276 -0.144745,0.0736 0.07963,0.0596 0.144745,0.1369 0.144745,0.17168 0,0.0348 0.02443,0.0876 0.05429,0.11749 0.122777,0.12278 0.03574,0.17481 -0.289595,0.17338 l -0.343781,-0.002 0.169558,-0.13042 c 0.09818,-0.0755 0.159865,-0.18916 0.146547,-0.26988 -0.01265,-0.0767 -0.0011,-0.17422 0.02566,-0.21674 0.08848,-0.14072 -0.02709,-0.89986 -0.137003,-0.89986 -0.0554,0 -0.120078,0.0503 -0.143684,0.11177 -0.03595,0.0937 -0.0601,0.0872 -0.148986,-0.0397 -0.08389,-0.11977 -0.127463,-0.13366 -0.208156,-0.0667 -0.05613,0.0466 -0.102116,0.12394 -0.102116,0.1719 0,0.0549 -0.07723,0.0758 -0.20858,0.0565 -0.237415,-0.0349 -0.260874,-0.009 -0.327026,0.35778 -0.04087,0.22669 -0.02631,0.27272 0.09904,0.3125 0.08085,0.0257 0.146971,0.0794 0.146971,0.1194 0,0.04 0.04886,0.1215 0.108584,0.18122 0.15604,0.15604 0.134083,0.24305 -0.0615,0.24305 -0.09359,0 -0.264615,0.0298 -0.380046,0.0662 -0.380583,0.12003 -0.680457,0.15091 -0.680457,0.0701 0,-0.0425 0.06511,-0.16005 0.144744,-0.26128 0.07963,-0.10124 0.14704,-0.253 0.149728,-0.33721 0.0048,-0.15045 0.0063,-0.15029 0.08345,0.01 0.0432,0.0896 0.106138,0.16288 0.139866,0.16288 0.08737,0 0.08174,-0.0176 -0.121946,-0.38206 -0.135068,-0.24166 -0.260286,-0.35873 -0.476011,-0.44505 -0.41175,-0.16475 -0.327349,-0.29037 0.212609,-0.31642 0.24568,-0.0119 0.446639,-0.046 0.446639,-0.0758 0,-0.0299 -0.213248,-0.0407 -0.473998,-0.0241 l -0.474103,0.0301 0.04464,-0.20773 c 0.02203,-0.10241 0.02959,-0.15062 0.01676,-0.15471 z m 4.186024,0.38259 c 0.07181,7.8e-4 0.102892,0.0684 0.101904,0.20986 -8.14e-4,0.11275 -0.01688,0.12594 -0.06362,0.0522 -0.03561,-0.0562 -0.07398,-0.0671 -0.08929,-0.0252 -0.01593,0.0436 -0.06384,0.0333 -0.117704,-0.0252 -0.07367,-0.0801 -0.06525,-0.11249 0.04475,-0.17136 0.05026,-0.0269 0.09132,-0.0405 0.123961,-0.0402 z m -4.355476,0.28811 c 0.02149,-0.003 0.04873,0.0113 0.08663,0.0427 0.05464,0.0453 0.08141,0.11135 0.05959,0.14665 -0.08904,0.14407 -0.260492,0.0356 -0.198613,-0.12566 0.01514,-0.0394 0.03089,-0.0605 0.05238,-0.0637 z m 2.142109,0.1088 c 0.0037,-0.004 0.03304,0.0182 0.09045,0.0632 0.06968,0.0546 0.126718,0.11157 0.126718,0.12661 0,0.0596 -0.05951,0.0212 -0.154075,-0.0994 -0.04502,-0.0574 -0.06683,-0.0867 -0.06309,-0.0905 z m -0.329996,0.0244 c 0.01156,-0.001 0.02547,0.003 0.0404,0.0118 0.03982,0.0246 0.07243,0.0591 0.07243,0.0767 0,0.0176 -0.03261,0.0319 -0.07243,0.0319 -0.03981,0 -0.07243,-0.0345 -0.07243,-0.0767 0,-0.0263 0.01276,-0.0418 0.03202,-0.0437 z m 0.295321,0.12036 c 0.02355,0 0.109111,0.1501 0.190235,0.33349 0.115359,0.26079 0.128281,0.35145 0.05928,0.41621 -0.06648,0.0624 -0.09661,0.0597 -0.12237,-0.0107 -0.02653,-0.0726 -0.05734,-0.0743 -0.137427,-0.008 -0.0835,0.0693 -0.09447,0.063 -0.05758,-0.0332 0.02535,-0.0661 0.01,-0.11877 -0.03457,-0.11877 -0.04407,0 -0.08006,0.0315 -0.08006,0.0701 0,0.17075 -0.188313,-0.0229 -0.20243,-0.20816 -0.01146,-0.15039 0.03298,-0.23852 0.163195,-0.32384 0.0984,-0.0645 0.198182,-0.11729 0.221729,-0.11729 z m 0.871328,0 c -0.01756,0 -0.05195,0.0326 -0.07656,0.0724 -0.02461,0.0398 -0.01025,0.0724 0.03192,0.0724 0.04216,0 0.07667,-0.0326 0.07667,-0.0724 0,-0.0398 -0.01446,-0.0724 -0.03202,-0.0724 z m -2.542408,0.008 c 0.01324,0.002 0.04948,0.0453 0.121309,0.13245 0.170463,0.20668 0.135411,0.45975 -0.09851,0.71036 -0.08362,0.0896 -0.178107,0.16288 -0.209959,0.16288 -0.1279,0 -0.291028,-0.45529 -0.247072,-0.68958 0.05214,-0.27792 0.229284,-0.38323 0.295215,-0.1755 0.06284,0.198 0.205923,0.17804 0.155772,-0.0217 -0.02019,-0.0804 -0.02999,-0.12058 -0.01676,-0.11887 z m -0.241029,0.13701 c -0.08136,0 -0.15735,0.18823 -0.09936,0.24622 0.08714,0.0871 0.163937,0.0396 0.163937,-0.10148 0,-0.0796 -0.02902,-0.14474 -0.06458,-0.14474 z m 1.69759,0.14474 c -0.01756,0 -0.05195,0.0326 -0.07656,0.0724 -0.02461,0.0398 -0.01025,0.0723 0.03192,0.0723 0.04216,0 0.07667,-0.0325 0.07667,-0.0723 0,-0.0398 -0.01446,-0.0724 -0.03202,-0.0724 z m 0.321513,0.0724 c -0.03981,0 -0.07232,0.0325 -0.07232,0.0723 0,0.0398 0.0325,0.0724 0.07232,0.0724 0.03981,0 0.07243,-0.0326 0.07243,-0.0724 0,-0.0398 -0.03261,-0.0723 -0.07243,-0.0723 z m -1.855483,0.15237 c -0.01553,-0.005 -0.01023,0.0217 0.01304,0.0828 0.03743,0.0983 0.01006,0.12696 -0.12237,0.12778 -0.13672,7.8e-4 -0.149044,0.0151 -0.06203,0.0714 0.05972,0.0386 0.133994,0.0707 0.165104,0.0713 0.103316,0.002 0.145039,-0.22444 0.05737,-0.31144 -0.02498,-0.0248 -0.04179,-0.0389 -0.05111,-0.0418 z m 5.943102,0.0982 c -0.01309,-0.005 -0.02237,0.0367 -0.02237,0.11134 0,0.0995 0.01649,0.14021 0.03658,0.0904 0.02009,-0.0498 0.02009,-0.13113 0,-0.1809 -0.005,-0.0125 -0.0098,-0.0193 -0.01421,-0.0209 z m -1.774045,0.19723 c 0.07165,-0.004 0.07394,0.097 0.0702,0.40274 -0.0066,0.5369 -0.127177,0.8613 -0.134565,0.36191 -0.0055,-0.37132 -0.121194,-0.46959 -0.170406,-0.14474 -0.01879,0.12405 -0.03428,0.0705 -0.04104,-0.1422 -0.0086,-0.27023 0.01829,-0.35698 0.129157,-0.41631 0.06719,-0.0359 0.114085,-0.0595 0.146652,-0.0614 z m -1.288488,0.36647 c 0.01906,0.005 0.04098,0.035 0.06405,0.0973 0.02851,0.0771 0.02857,0.26995 1.07e-4,0.42861 l -0.05175,0.28854 -0.05567,-0.3388 c -0.04485,-0.273 -0.01391,-0.48967 0.04326,-0.4757 z m 3.134958,0.0878 c -0.01309,-0.005 -0.02238,0.0367 -0.02238,0.11134 0,0.0995 0.01639,0.14021 0.03648,0.0905 0.02009,-0.0498 0.02009,-0.13114 0,-0.1809 -0.005,-0.0125 -0.0097,-0.0193 -0.0141,-0.0209 z m 0,0.50676 c -0.01309,-0.005 -0.02238,0.0367 -0.02238,0.11134 0,0.0995 0.01639,0.14022 0.03648,0.0905 0.02009,-0.0498 0.02009,-0.13124 0,-0.18101 -0.005,-0.0125 -0.0097,-0.0192 -0.0141,-0.0208 z m -0.07985,0.71545 c -0.01098,-0.002 -0.01851,0.0248 -0.02068,0.0775 l 1.07e-4,0 c -0.0031,0.0763 0.01391,0.11907 0.03796,0.095 0.02405,-0.024 0.02664,-0.0864 0.0057,-0.1387 -0.0087,-0.0216 -0.01653,-0.0328 -0.02312,-0.0338 z m -5.082802,0.40931 c -0.0354,0 -0.10834,0.15477 -0.162028,0.34389 -0.05449,0.19194 -0.108981,0.28789 -0.123325,0.21717 -0.04547,-0.22426 -0.130118,-0.1359 -0.225229,0.23519 -0.05102,0.19908 -0.126127,0.36203 -0.166905,0.36203 -0.04237,0 -0.05429,-0.0698 -0.02778,-0.16288 0.113411,-0.39828 0.129799,-0.56106 0.05641,-0.56106 -0.04235,0 -0.09903,0.14695 -0.125975,0.3266 -0.05384,0.35905 -0.05112,0.35573 -0.350037,0.42734 -0.204066,0.0489 -0.208163,0.0444 -0.16574,-0.18896 0.02392,-0.13155 0.06488,-0.31252 0.09098,-0.4021 0.02675,-0.0918 0.0159,-0.16288 -0.02482,-0.16288 -0.0921,0 -0.247265,0.60567 -0.192038,0.7496 0.03206,0.0835 0.0034,0.0985 -0.125021,0.0649 -0.0917,-0.024 -0.131043,-0.0555 -0.08738,-0.0701 0.04979,-0.0166 0.0658,-0.15349 0.04284,-0.36732 -0.04389,-0.40877 -0.05359,-0.4237 -0.187478,-0.28981 -0.06951,0.0695 -0.103084,0.25327 -0.100314,0.54791 0.0041,0.44018 0.0057,0.44341 0.227773,0.47029 0.122994,0.0149 0.4517,0.0168 0.730402,0.004 0.278699,-0.0126 1.450766,-0.0376 2.604654,-0.0556 1.379095,-0.0215 2.106721,-0.0589 2.123445,-0.10912 0.014,-0.042 0.09329,-0.0763 0.176238,-0.0763 0.08295,0 0.127705,-0.0231 0.09947,-0.0513 -0.02824,-0.0282 -0.180174,-0.042 -0.337736,-0.0306 -0.261135,0.0188 -0.28652,0.005 -0.28652,-0.15609 0,-0.0972 0.06885,-0.26435 0.153016,-0.37135 0.08417,-0.10701 0.13676,-0.21084 0.116856,-0.23075 -0.07529,-0.0753 -0.342297,0.36178 -0.342297,0.56032 0,0.1316 -0.0378,0.20741 -0.103494,0.20741 -0.112507,0 -0.06633,-0.26161 0.101479,-0.57516 0.04734,-0.0886 0.06956,-0.17773 0.0492,-0.19808 -0.05277,-0.0528 -0.336676,0.52389 -0.336676,0.68385 0,0.10419 -0.06237,0.13719 -0.283763,0.15026 -0.156029,0.009 -0.306065,-0.0196 -0.333494,-0.064 -0.02743,-0.0444 -0.0093,-0.22568 0.04029,-0.40284 0.04952,-0.17716 0.07129,-0.34099 0.04825,-0.36403 -0.02305,-0.023 -0.09501,0.14077 -0.159908,0.36403 -0.06745,0.23203 -0.159452,0.40592 -0.214837,0.40592 -0.08077,0 -0.08105,-0.0603 -0.0015,-0.36191 0.05252,-0.19907 0.06914,-0.36192 0.0369,-0.36192 -0.03224,0 -0.09773,0.16285 -0.145487,0.36192 -0.04776,0.19907 -0.10804,0.36147 -0.133928,0.36085 -0.151919,-0.003 -0.247091,-0.16287 -0.253965,-0.425 -0.0043,-0.16379 -0.03693,-0.29777 -0.07253,-0.29777 -0.03561,0 -0.04932,0.15979 -0.03054,0.35513 0.03332,0.34682 0.029,0.35614 -0.183342,0.39861 -0.119598,0.0239 -0.227704,0.0333 -0.24018,0.0209 -0.01247,-0.0125 0.01105,-0.14486 0.05228,-0.29416 0.04122,-0.1493 0.0623,-0.3266 0.04676,-0.39404 -0.02681,-0.11634 -0.215375,0.41705 -0.220033,0.62245 -0.0012,0.0515 -0.04821,0.0759 -0.104555,0.0543 -0.05634,-0.0216 -0.201517,-0.0393 -0.322679,-0.0393 -0.21052,0 -0.2181,-0.0104 -0.170406,-0.2352 0.119391,-0.56277 0.134109,-0.72755 0.06118,-0.68247 -0.04087,0.0252 -0.117062,0.23875 -0.169345,0.47442 -0.06646,0.29955 -0.123726,0.41748 -0.190342,0.39192 -0.118837,-0.0456 -0.116514,-0.19703 0.0083,-0.54674 0.05343,-0.14976 0.07304,-0.28709 0.04358,-0.30529 -0.06901,-0.0426 -0.19701,0.23927 -0.259267,0.57113 -0.02681,0.1429 -0.07766,0.2599 -0.113038,0.2599 -0.09438,0 -0.07852,-0.23699 0.03457,-0.51599 0.14542,-0.35875 0.202413,-0.64228 0.12905,-0.64228 z m 1.972869,0.33721 c -0.0067,0.002 -0.01505,0.0103 -0.02492,0.0247 -0.04096,0.0597 -0.07488,0.26881 -0.0755,0.46456 -0.0014,0.46351 0.04086,0.40566 0.101587,-0.1388 0.02781,-0.24934 0.02797,-0.35918 -0.0012,-0.35047 z m 1.014482,0.005 c -0.0052,-0.002 -0.01243,0.004 -0.02184,0.0194 -0.03685,0.0597 -0.08602,0.27153 -0.109328,0.47061 -0.02783,0.23774 -0.02165,0.29977 0.01803,0.1809 0.08785,-0.26319 0.149569,-0.65812 0.113145,-0.67092 z m -1.520716,0.0774 c -0.03091,-0.003 -0.09278,0.16733 -0.137533,0.44876 -0.03518,0.22122 -0.02812,0.30249 0.02206,0.25333 0.04064,-0.0398 0.09459,-0.23527 0.119931,-0.43434 0.02333,-0.18326 0.0167,-0.26591 -0.0045,-0.26775 z m -2.358853,0.0191 c -0.0131,0.004 -0.03734,0.0218 -0.07444,0.052 -0.06284,0.0511 -0.128465,0.18946 -0.145805,0.30761 -0.03661,0.24944 0.05415,0.29369 0.10657,0.052 0.01943,-0.0896 0.062,-0.22798 0.09448,-0.30762 0.03196,-0.0783 0.04102,-0.11047 0.01919,-0.10391 z m 1.764925,0.14007 c -0.06645,0 -0.232015,0.36934 -0.232015,0.51758 0,0.13623 0.131967,0.0502 0.172845,-0.11272 0.02405,-0.0958 0.06357,-0.22606 0.08791,-0.28948 0.02434,-0.0634 0.01144,-0.11538 -0.02874,-0.11538 z m -2.594474,0.31463 c 0.0066,0.001 0.01434,0.0122 0.02301,0.0338 0.0209,0.0523 0.01833,0.11465 -0.0057,0.1387 -0.02405,0.024 -0.0411,-0.0187 -0.03796,-0.095 0.0022,-0.0527 0.0097,-0.0792 0.02068,-0.0775 z m 1.303016,0.0724 c 0.0066,0.001 0.01435,0.0121 0.02301,0.0337 0.0209,0.0523 0.01833,0.11474 -0.0057,0.1388 -0.02405,0.0241 -0.0411,-0.0187 -0.03796,-0.095 0.0022,-0.0527 0.0097,-0.0792 0.02068,-0.0775 z"
       style="fill:#000000;fill-opacity:1;stroke-width:0.35277778" />
    <path
       id="path1404"
       d="m 69.880588,116.33043 c 0.07292,-0.231 0.246351,-0.71402 0.385397,-1.07337 l 0.252823,-0.65335 -0.116599,0.65335 c -0.142797,0.8002 -0.395149,1.49339 -0.543666,1.49339 -0.06079,0 -0.05085,-0.18901 0.02207,-0.42002 z"
       style="fill:#cce8ec;fill-opacity:1;stroke-width:0.35277778" />
  </g>
</svg>
