<?xml version="1.0" encoding="UTF-8" standalone="no"?>
<svg
   xmlns:dc="http://purl.org/dc/elements/1.1/"
   xmlns:cc="http://creativecommons.org/ns#"
   xmlns:rdf="http://www.w3.org/1999/02/22-rdf-syntax-ns#"
   xmlns:svg="http://www.w3.org/2000/svg"
   xmlns="http://www.w3.org/2000/svg"
   id="svg8"
   version="1.1"
   viewBox="0 0 39.26878 26.458334"
   height="26.458334mm"
   width="39.26878mm">
  <defs
     id="defs2" />
  <metadata
     id="metadata5">
    <rdf:RDF>
      <cc:Work
         rdf:about="">
        <dc:format>image/svg+xml</dc:format>
        <dc:type
           rdf:resource="http://purl.org/dc/dcmitype/StillImage" />
        <dc:title></dc:title>
      </cc:Work>
    </rdf:RDF>
  </metadata>
  <g
     transform="translate(-42.150247,-75.053319)"
     id="layer1">
    <g
       transform="matrix(0.23614622,0,0,0.23614622,49.691125,63.54446)"
       id="g997">
      <path
         id="path986"
         d="m 53.973981,160.73524 c -25.942867,-1.82123 -51.9475414,-2.80045 -77.903876,-4.31537 -8.210097,1.90172 -12.021939,-12.36856 -1.984314,-9.49622 16.3518666,0.57802 32.6975052,1.39433 48.998241,2.74969 13.123894,0.81881 26.432822,-1.42683 39.416314,1.07711 9.230929,2.92738 18.95719,0.8327 28.409765,0.48092 -4.117875,-2.11591 -8.1621,-4.58589 -12.779888,-5.41557 -5.183752,-2.71926 -12.31005,-9.45994 -3.809297,-13.18434 2.719286,-7.27208 -3.54086,-14.41157 -2.265002,-21.89978 0.912036,-5.31394 5.700727,-9.16215 2.159541,-14.728993 0.56313,-7.056214 4.261256,-14.832765 -1.436914,-21.140543 -5.531831,-4.357809 -7.696784,-13.245858 -1.024114,-17.719753 5.165793,-4.995859 13.418654,1.243148 13.668426,7.407399 -3.02906,9.618688 9.605122,7.40992 11.065747,15.058439 3.476387,9.805566 5.70277,20.099148 10.79484,29.269771 5.26625,8.68297 -11.729531,8.59708 -8.110595,16.28169 3.053705,7.88097 3.043035,16.54282 4.432645,24.7015 6.28252,1.88813 13.4196,0.99553 20.01867,0.98175 6.06033,-3.42779 11.92119,2.67035 6.76889,7.9247 -19.96945,1.83017 -40.099666,1.14305 -60.136486,1.8102 -5.425919,0.0748 -10.8571,0.29205 -16.282593,0.1574 z m 36.607157,-27.32378 c 0.529855,-5.70358 -7.046724,-12.63988 -4.197844,-2.93897 0.211304,1.86228 2.98493,7.39308 4.197844,2.93897 z m -55.462127,13.60475 c -7.432655,-1.77625 -15.208042,0.76406 -22.575102,-0.74417 -4.2083771,-7.66864 11.091137,-5.46132 8.355431,-14.01533 0.507512,-9.0362 0.04829,-18.34299 3.44237,-26.91843 -0.08165,-6.507444 -3.456292,-12.904055 -2.994927,-19.387453 2.443812,-6.59345 3.970312,-15.049507 -2.12652,-20.149659 -5.541165,-6.485656 0.845976,-17.455436 8.668328,-17.054311 6.183407,-0.223936 15.308865,4.428765 8.81073,11.187849 -4.700143,5.595484 2.945146,11.956369 3.847173,17.875306 4.8394,12.779727 -0.818776,26.245638 -0.0071,39.305528 1.000294,6.75805 4.740787,13.20748 3.414421,20.21119 2.668968,4.01757 4.118665,11.24426 -3.410944,10.79801 -1.858654,-0.0363 -3.665579,-0.54782 -5.423817,-1.10853 z m -0.42266,-8.90186 c 0.581665,-2.56128 -1.762604,-11.8584 -2.956171,-10.08385 -0.729716,3.46316 -3.963223,12.45419 2.221626,11.05341 l 0.512121,-0.43651 z"
         style="fill:#285c68;fill-opacity:1;stroke-width:1.09825993" />
      <path
         id="path970"
         d="m 49.038578,157.59878 c -17.103291,-1.73374 -34.338619,-2.29032 -51.5188832,-3.00159 -8.3750698,-0.57356 -17.1662528,0.52994 -25.1826258,-2.39576 -4.791315,-2.38674 -1.191162,-9.09501 3.09745,-4.70234 12.560158,2.11855 25.40365599,1.51323 38.063745,2.77934 6.120311,-0.93018 11.6873,1.52075 16.84863,1.77747 5.626542,-2.59505 12.617388,-1.50634 18.821296,-1.79694 3.036636,-0.68343 6.735459,2.40167 6.533363,-0.94193 5.436409,2.4781 12.819233,4.14844 19.400186,4.5623 19.268344,0.41974 38.521501,-0.57769 57.751421,-1.59333 5.90357,5.6301 -7.24008,4.56004 -10.74669,4.8675 -24.136645,0.74367 -48.306836,1.20247 -72.448427,0.55645 l -0.619449,-0.11075 z m -24.023502,-5.65361 c -3.047661,-1.64331 -7.832526,0.93726 -1.721898,1.02279 0.485,-0.13991 1.659255,-0.23726 1.721898,-1.02279 z m 21.162406,-0.0537 c -6.846313,-1.06833 -2.369096,1.74207 0,0 z m 41.987538,-6.32326 c -3.957637,-1.20569 -2.915657,-1.85983 0.651207,-2.23544 3.712744,0.0675 8.682119,-4.992 2.05767,-2.61888 -2.967652,0.46407 -13.378647,2.87069 -11.85189,0.79524 3.065503,-0.42097 11.294386,-3.86916 3.707606,-4.04365 -3.674748,0.97473 -13.843696,-0.74458 -5.456562,-3.99929 5.095655,-6.01944 -0.873815,-14.25141 -1.322011,-21.09187 -2.353081,-6.54443 9.046861,-9.8513 2.437091,-15.668101 -2.084897,-6.199326 3.902849,-12.55927 2.520795,-18.154282 -2.525529,-1.388746 4.62502,-10.561476 -2.862984,-9.930969 -8.196536,5.475254 -8.450046,-12.215532 -0.274659,-12.076543 7.423029,-2.006846 11.201176,9.476705 6.549819,13.698013 2.310041,2.554631 -0.41577,7.458146 4.541638,3.93436 3.294613,-1.370119 9.725346,1.144393 5.800323,3.478894 4.325074,1.024851 4.021268,3.782066 0.98081,2.893029 5.307417,2.838523 5.104097,9.421942 7.024667,14.644644 1.51134,4.353649 6.05972,11.016345 -0.77528,12.389875 1.58048,1.72546 6.81414,-2.85661 7.34302,2.93012 -3.31515,5.4062 -13.672832,8.95675 -7.95999,17.0559 1.87688,3.48067 2.23358,10.06047 -1.04383,10.48237 5.18018,3.09703 7.13556,11.33487 -1.835619,9.01943 -3.435902,-0.10954 -6.971102,-0.33236 -10.231821,-1.50285 z m 8.236951,-8.71717 c -1.087719,-7.85647 -5.770372,-13.74587 -10.266109,-19.3703 -3.548894,-7.13159 -0.961806,4.33852 0.252554,6.70934 0.216262,5.88441 2.430401,14.45515 10.013555,12.661 z m -0.02063,-18.29789 c -3.338616,-2.06809 -7.530561,2.67694 -1.552028,1.36563 0.336888,-0.0463 2.868074,-0.5391 1.552028,-1.36563 z M 92.008845,82.75491 c -4.074808,-2.223395 -4.534981,3.8429 0,0 z M 79.745505,59.395854 c 2.94131,-4.352716 -10.15558,1.602083 -2.692971,0.844973 0.930837,-0.140448 1.873511,-0.361535 2.692971,-0.844973 z M 16.472649,143.63007 c -5.064616,-5.28924 12.590156,-1.10953 6.742341,-7.27813 3.162796,5.22985 9.610041,-5.35311 8.530939,2.53309 8.919676,4.64026 8.706356,-8.05897 5.10125,-12.93964 -0.592346,-3.97053 -4.894164,-10.07975 -4.159283,-2.2276 1.566594,4.89061 -2.919919,15.65832 -7.471584,7.79157 -0.170718,-7.5941 -0.59759,-15.53463 1.909713,-22.866 3.209107,-6.38189 -0.553064,-13.057478 -1.619869,-19.436806 -3.947733,-4.402889 3.636897,-7.632449 5.158777,-2.051474 2.775051,-1.74005 2.852429,-0.650142 3.879347,1.339023 3.630923,-3.530155 7.294494,-0.372475 9.801346,-2.503327 -0.221251,4.593378 -4.412495,12.307751 -0.432854,14.130434 -4.924265,8.03301 -2.940882,17.75153 0.262012,26.00294 2.443012,4.36461 1.393468,8.6615 -1.112667,11.97479 3.649824,0.74027 7.553026,7.15396 0.687247,6.52445 -8.29509,-0.48136 -16.917191,-3.3637 -25.014056,-0.15473 -0.821361,0.0181 -1.665645,-0.26069 -2.262659,-0.83859 z m 13.833946,-62.7192 c -7.42729,-4.919277 10.145664,-12.464606 9.736488,-4.451783 -7.558651,2.920516 9.640247,5.745414 0.417674,6.877582 -3.50167,0.180449 -7.373448,-0.0023 -10.154162,-2.425799 z m 9.878195,-2.632698 c 5.179589,-0.665694 -1.084399,1.822366 0,0 z m 37.117609,-4.275288 c -1.733082,-6.466248 5.649395,1.91825 0.394456,0.788727 z M 27.647443,71.994923 c -0.29408,-6.197155 -9.446359,-10.398959 -5.97276,-17.128237 2.516338,-0.227265 5.639829,-2.038099 2.564606,0.996374 4.418006,-0.192194 3.190899,-5.190477 1.204899,-6.040197 4.121929,-2.091707 16.437751,-0.830853 14.434496,5.739114 -3.582931,2.579301 -8.310963,8.230676 -2.855678,11.458584 -1.222369,1.971773 -9.79761,12.498237 -9.375563,4.974362 z"
         style="fill:#153137;fill-opacity:1;stroke-width:1.09825993" />
    </g>
  </g>
</svg>
