<?xml version="1.0" encoding="UTF-8" standalone="no"?>
<svg
   xmlns:dc="http://purl.org/dc/elements/1.1/"
   xmlns:cc="http://creativecommons.org/ns#"
   xmlns:rdf="http://www.w3.org/1999/02/22-rdf-syntax-ns#"
   xmlns:svg="http://www.w3.org/2000/svg"
   xmlns="http://www.w3.org/2000/svg"
   version="1.1"
   id="svg4482"
   width="32.000511"
   height="35.498737"
   viewBox="0 0 9.0312551 10.018533">
  <metadata
     id="metadata4491">
    <rdf:RDF>
      <cc:Work
         rdf:about="">
        <dc:format>image/svg+xml</dc:format>
        <dc:type
           rdf:resource="http://purl.org/dc/dcmitype/StillImage" />
        <dc:title></dc:title>
      </cc:Work>
    </rdf:RDF>
  </metadata>
  <defs
     id="defs4489" />
  <g
     transform="translate(-0.20019774,0.0571878)"
     id="g4684">
    <path
       style="fill:#63bccf;fill-opacity:0.94117647;stroke-width:0.35277778"
       d="m 4.7432737,-0.0571878 c -0.2258379,0.004 -0.4526909,0.02710678 -0.678546,0.07110678 C 2.6394068,0.29151897 1.3857113,1.2664506 0.75027041,2.5908506 0.3041234,3.5207307 0.16534035,4.1933614 0.20732335,5.2218012 c 0.05584,1.3678 0.5263855,2.4647134 1.46843745,3.4213935 0.404922,0.4112099 0.6449455,0.5818615 1.1944835,0.8488717 0.378236,0.1837899 0.8669131,0.3634611 1.0858941,0.3996309 0.6132418,0.1012902 1.0419416,0.093181 1.6453776,-0.031419 0.8157678,-0.1684999 1.6922194,-0.6520787 1.9061023,-1.051719 0.09483,-0.1771898 0.072557,-0.1732686 -0.2182811,0.041341 -0.133118,0.0982 -0.2690162,0.1620822 -0.3020661,0.1416623 -0.03305,-0.0204 -0.1297178,1.309e-4 -0.214974,0.045751 -0.1078608,0.0577 -0.1400522,0.059007 -0.1058333,0.00331 0.06734,-0.1089499 2.122e-4,-0.1001734 -0.2607248,0.034727 -0.1218481,0.063 -0.1996485,0.07938 -0.1730815,0.03638 0.03299,-0.0534 -0.00445,-0.05929 -0.1185114,-0.01819 -0.09186,0.0331 -0.3954342,0.1013742 -0.6741363,0.1515844 C 3.660995,9.5656418 1.5359698,8.2107063 0.96910286,6.3942362 0.75874887,5.7201862 0.74525752,4.3678938 0.94264453,3.7125738 1.4477275,2.0357237 2.7402064,0.86295805 4.3888424,0.58497803 c 0.5801018,-0.0978 0.7014749,-0.0977878 1.2055077,0.005512 0.6495751,0.13246998 1.1323117,0.35499722 1.6916798,0.77886717 0.2189799,0.16593 0.3360197,0.2314821 0.2601736,0.1460721 -0.15055,-0.16954 -0.088654,-0.2088822 0.1008724,-0.064492 0.06532,0.0498 -0.030038,-0.048994 -0.2116667,-0.2193837 C 7.2537823,1.0611036 6.8409999,0.79164376 6.518187,0.63293377 5.2294331,-6.4622067e-4 3.8305922,0.08833012 2.4678571,0.88980012 2.0663701,1.1259201 2.0539257,1.1283598 2.2771367,0.93499976 2.4086146,0.82109978 2.7261014,0.62547089 2.9832434,0.50009089 5.0305813,-0.4981491 7.2832712,0.22565869 8.4700401,2.2634287 8.8319972,2.8849387 8.9162727,2.9481824 8.6298928,2.3830424 7.8541996,0.8522824 6.3241387,-0.08254658 4.7432737,-0.05663658 l 0,-5.5122e-4 z m 1.6453776,0.72925787 c 0.0067,3.7998e-4 0.016213,0.002063 0.028663,0.006063 0.209574,0.0586 0.9025472,0.48797073 0.9739974,0.60358073 0.07321,0.11846 0.0079,0.095135 -0.2083593,-0.074965 C 7.0755926,1.1222489 6.8184624,0.95721074 6.6118936,0.84019073 6.4311446,0.73779074 6.3415554,0.66953128 6.3886513,0.67262128 l 0,-5.5121e-4 z M 7.7567678,1.6135458 7.8945715,1.7761543 c 0.1295939,0.15307 0.1879646,0.1962851 0.1879646,0.1383551 0,-0.0137 -0.073573,-0.08729 -0.1631601,-0.1631598 L 7.7567678,1.6135458 Z m 1.3730771,2.314002 c -0.01309,-0.005 -0.0226,0.036705 -0.0226,0.1113454 0,0.0995 0.01629,0.1402092 0.03638,0.090399 0.02009,-0.0498 0.02009,-0.1315796 0,-0.1813498 -0.005,-0.0125 -0.00937,-0.018795 -0.01378,-0.020395 z m 0.072209,0.6515363 c -0.01309,-0.005 -0.0226,0.036706 -0.0226,0.1113457 0,0.0995 0.016842,0.1401092 0.036932,0.090399 0.02009,-0.0498 0.02009,-0.1310386 0,-0.1807987 -0.005,-0.0125 -0.00993,-0.019346 -0.014332,-0.020946 z m 0,0.5065669 c -0.01309,-0.005 -0.0226,0.036706 -0.0226,0.1113457 0,0.0995 0.016842,0.1401191 0.036932,0.090399 0.02009,-0.0498 0.02009,-0.1310288 0,-0.1807987 -0.005,-0.0125 -0.00993,-0.019346 -0.014332,-0.020946 z m -0.079926,0.7154774 c -0.01098,-0.002 -0.018225,0.02447 -0.020395,0.07717 -0.0031,0.0763 0.013984,0.1194302 0.038034,0.09536 0.02405,-0.024 0.026452,-0.086606 0.00551,-0.1389064 -0.0087,-0.0216 -0.016561,-0.032624 -0.023151,-0.033624 z M 8.1139553,7.455877 a 4.024433,3.8160756 0 0 1 -0.043546,0.05016 c 0.048636,-0.00749 0.079007,-0.022444 0.057326,-0.044097 -0.0023,-0.0023 -0.0099,-0.00396 -0.01378,-0.00606 z"
       id="path4599" />
    <path
       style="fill:#000000;fill-opacity:0.94117647;stroke-width:0.35277778"
       d="m 2.9929267,2.3880633 c -0.01,-0.003 -0.031993,0.019995 -0.069453,0.065595 -0.08656,0.10533 -0.1205543,0.1073352 -0.2949002,0.015985 -0.108232,-0.0567 -0.196784,-0.071875 -0.196784,-0.034175 0,0.0378 0.040629,0.087685 0.090399,0.1113455 0.110716,0.0526 -0.1435273,0.00486 -0.3434072,-0.065043 -0.128743,-0.0447 -0.1319042,-0.039598 -0.028663,0.046302 0.1323371,0.11015 0.1347766,0.5261585 0.00386,0.6570486 -0.04612,0.0461 -0.08302,0.1174912 -0.08158,0.1593012 0.0013,0.0418 0.064345,0.00225 0.1400085,-0.088746 l 0.137804,-0.1648134 0.1107942,0.345612 c 0.110479,0.34443 0.1108087,0.3447816 0.091502,0.073312 C 2.541597,3.3562874 2.56398,3.2473879 2.60377,3.2606379 c 0.03888,0.012999 0.076826,0.1695267 0.084336,0.3478169 0.0075,0.1782998 0.067781,0.4287873 0.1339455,0.5567274 l 0.1201648,0.2326129 -0.2188325,0 c -0.1204641,0 -0.2188323,0.030499 -0.2188323,0.067799 0,0.0373 -0.089503,0.082019 -0.1989887,0.099219 -0.1094892,0.0173 -0.065404,0.024185 0.098116,0.014883 l 0.297105,-0.017088 0.047405,0.7320139 c 0.02595,0.4025599 0.06676,0.8215131 0.090951,0.9310029 0.02419,0.1095 0.073765,0.1989887 0.1096919,0.1989887 0.03593,0 0.042351,-0.089449 0.014331,-0.1989887 -0.1318102,-0.5151199 0.051704,-0.7350388 0.200091,-0.2397788 0.04847,0.1617898 0.1153152,0.294349 0.1488282,0.294349 0.07979,0 0.077003,-0.052282 -0.012127,-0.2188325 -0.04025,-0.0752 -0.089376,-0.3089558 -0.1091407,-0.5197961 -0.01977,-0.2108299 -0.052118,-0.4649044 -0.071658,-0.5644445 -0.01955,-0.0995 -0.0071,-0.2251047 0.027561,-0.2789149 0.06038,-0.0938 0.6125032,-0.2513764 1.1856641,-0.3384462 l 0.271198,-0.041341 0,0.5666495 c 0,0.4769499 0.023085,0.5863026 0.1449697,0.6906726 0.1045238,0.0895 0.1449696,0.213323 0.1449694,0.4459332 0,0.2755999 0.09339,0.4787742 0.1802474,0.3919141 0.01423,-0.014201 -0.015766,-0.2456025 -0.066146,-0.5137325 -0.05038,-0.2681199 -0.07481,-0.5039759 -0.05457,-0.5242058 0.1116669,-0.11167 0.2189881,5.78e-5 0.261276,0.2711977 0.05758,0.36932 0.2165122,0.6867238 0.286632,0.573264 0.02693,-0.0436 0.016269,-0.1370593 -0.023151,-0.2083593 -0.07335,-0.13264 -0.4398699,-1.405939 -0.4398699,-1.527969 0,-0.0372 0.1383671,-0.064082 0.3075782,-0.060082 0.4042159,0.009 0.5347042,0.1743261 0.5969661,0.7557161 0.04094,0.3822799 0.065785,0.442729 0.1515843,0.371519 0.05633,-0.0468 0.1056288,-0.1539658 0.1096919,-0.2386762 0.0055,-0.1140595 0.026782,-0.093171 0.082682,0.081029 0.04151,0.1293899 0.1031976,0.2353689 0.1372528,0.2353689 0.101479,0 0.064219,-0.5216164 -0.059531,-0.8328864 -0.06331,-0.15926 -0.1204967,-0.4036072 -0.1273307,-0.542947 -0.0079,-0.16222 -0.045373,-0.2459141 -0.1041795,-0.2331642 -0.05051,0.010899 -0.071955,-0.012666 -0.047405,-0.052365 0.04722,-0.0764 0.6129917,-0.2502073 0.6603557,-0.2028473 0.01529,0.015299 0.03368,0.1817156 0.04079,0.3698655 0.0095,0.2522099 0.038377,0.3327434 0.1096919,0.3053732 0.07249,-0.027799 0.096462,0.050319 0.096462,0.3125392 0,0.33285 0.1954592,0.7314627 0.3588413,0.7314627 0.09142,0 0.2427001,-0.9182411 0.1973352,-1.1977907 -0.0322,-0.1984505 -0.0117,-0.2650058 0.09977,-0.3246659 0.1625261,-0.087 0.1866248,-0.2149741 0.040239,-0.2149741 -0.05635,0 -0.1148057,-0.095962 -0.1328428,-0.2188324 -0.02599,-0.1771198 -0.00333,-0.2246217 0.1185113,-0.2502517 0.4004801,-0.0842 0.4063814,-0.1028187 0.024254,-0.076619 -0.392229,0.026899 -0.4116092,0.020725 -0.3412024,-0.1107943 0.05134,-0.0961 0.050824,-0.1835485 -0.0011,-0.2805686 -0.0581,-0.10856 -0.048965,-0.1555109 0.038585,-0.2045009 0.09843,-0.0551 0.09924,-0.075422 0.00882,-0.1504818 -0.118487,-0.0983 -0.4293167,-0.011916 -0.5291666,0.1471745 -0.08669,0.1381199 -0.1022748,0.5554434 -0.0226,0.6046832 0.14097,0.0871 0.064073,0.1927096 -0.1085895,0.1493794 -0.09709,-0.024299 -0.1953444,-0.013398 -0.2182814,0.023702 -0.02294,0.0371 0.029801,0.077599 0.1168577,0.090399 0.08705,0.012799 0.1730296,0.068673 0.1912716,0.1240236 0.01824,0.0554 0.00123,0.080524 -0.038034,0.056224 -0.03931,-0.024299 -0.169606,-0.016108 -0.2893882,0.01819 -0.119779,0.0344 -0.2620783,0.035505 -0.3158464,0.0022 -0.05733,-0.0355 -0.1418627,-0.024794 -0.2045008,0.025907 -0.08374,0.0677 -0.094985,0.066941 -0.052366,-0.00386 0.03626,-0.0603 0.00615,-0.090951 -0.090399,-0.090951 -0.1719411,0 -0.2418111,-0.090278 -0.1846572,-0.2392274 0.05164,-0.13458 0.2977301,-0.2036033 0.524757,-0.1466232 0.145941,0.0366 0.1658758,0.075771 0.1300866,0.2546614 C 6.28458,3.6117227 6.29679,3.6651516 6.34928,3.6327017 6.39233,3.6061027 6.412148,3.4828475 6.393928,3.3587476 6.375718,3.2346375 6.396488,3.076332 6.439679,3.0070722 6.5788397,2.7842432 6.403158,2.6993139 6.0422494,2.8147039 5.5139994,2.983584 5.3077732,3.5724224 5.713725,3.7528725 c 0.122461,0.0544 0.093716,0.061927 -0.1328429,0.034727 -0.2702658,-0.0325 -0.2801016,-0.027338 -0.1449693,0.073863 0.07963,0.0596 0.1449693,0.1366481 0.1449693,0.171428 0,0.0348 0.024159,0.087519 0.054019,0.117409 0.1227769,0.1227802 0.035947,0.1750627 -0.2893881,0.1736327 l -0.3439583,-0.0022 0.1697744,-0.130087 c 0.09818,-0.0755 0.1599413,-0.1893756 0.1466232,-0.2700954 -0.01265,-0.0767 -0.0014,-0.1741074 0.025356,-0.2166276 0.08848,-0.14072 -0.026788,-0.9001346 -0.1367011,-0.9001346 -0.0554,0 -0.1202614,0.050426 -0.1438673,0.1118967 -0.03595,0.0937 -0.059942,0.087213 -0.1488282,-0.039687 -0.0839,-0.1197728 -0.1276663,-0.1336569 -0.2083593,-0.066697 -0.05613,0.0466 -0.1019748,0.1240192 -0.1019748,0.1719792 0,0.0549 -0.077009,0.076075 -0.2083593,0.056775 -0.237414,-0.0349 -0.26127,-0.00904 -0.3274221,0.3577387 -0.04087,0.2266902 -0.026131,0.2727591 0.099219,0.3125391 0.08085,0.025699 0.1471744,0.079062 0.1471744,0.1190625 0,0.04 0.048867,0.1216296 0.1085895,0.1813498 0.1560398,0.1560399 0.1338479,0.243086 -0.061736,0.243086 -0.09359,0 -0.2643564,0.029746 -0.3797873,0.066146 -0.3805831,0.12003 -0.680751,0.1508145 -0.680751,0.070004 0,-0.0425 0.065336,-0.160046 0.1449696,-0.261276 0.07963,-0.1012402 0.1466915,-0.2531339 0.1493794,-0.3373439 0.0048,-0.1504499 0.00663,-0.1503678 0.083785,0.00992 0.0432,0.0896 0.1057295,0.1631594 0.1394576,0.1631594 0.08737,0 0.081867,-0.017531 -0.1218187,-0.381992 C 3.5612093,3.3397797 3.4363034,3.2223824 3.2205784,3.1360625 2.8088283,2.9713124 2.8928383,2.8457149 3.4327963,2.8196649 c 0.24568,-0.011901 0.4470357,-0.045717 0.4470357,-0.075516 0,-0.0299 -0.2132954,-0.040853 -0.4740453,-0.024253 l -0.474045,0.030317 0.044648,-0.2078082 c 0.021884,-0.1017292 0.029012,-0.1496945 0.016537,-0.1543414 z m 4.1859287,0.3825434 c 0.07181,7.903e-4 0.1029628,0.068553 0.1019748,0.210013 -8.182e-4,0.1127501 -0.01665,0.1255543 -0.06339,0.051814 -0.03561,-0.0562 -0.073987,-0.066705 -0.089297,-0.024805 -0.01593,0.0436 -0.064096,0.033144 -0.1179601,-0.025356 -0.07367,-0.0801 -0.065351,-0.1125578 0.044649,-0.171428 0.05026,-0.026899 0.091382,-0.040539 0.1240234,-0.040239 z m -4.355152,0.2882856 c 0.02149,-0.003 0.048641,0.011044 0.086541,0.042444 0.05464,0.0453 0.081351,0.1113235 0.059531,0.1466233 -0.08904,0.1440699 -0.2603164,0.035583 -0.1984375,-0.1256771 0.01514,-0.0394 0.030875,-0.06019 0.052366,-0.06339 z M 4.965726,3.1674817 c 0.0037,-0.004 0.032989,0.018391 0.090399,0.06339 0.06968,0.0546 0.1267796,0.1111883 0.1267796,0.1262283 0,0.0596 -0.059775,0.021381 -0.1543403,-0.099219 -0.04502,-0.0574 -0.066578,-0.086599 -0.062838,-0.090399 z m -0.3301779,0.024253 c 0.01156,-9.878e-4 0.02586,0.00333 0.04079,0.012127 0.03982,0.024601 0.072209,0.059019 0.072209,0.076619 0,0.017599 -0.032389,0.03197 -0.072209,0.03197 -0.03981,0 -0.07276,-0.034419 -0.07276,-0.076619 0,-0.0263 0.01271,-0.042197 0.03197,-0.044097 z m 0.2954513,0.120165 0,5.512e-4 c 0.02355,0 0.1090453,0.1500952 0.1901693,0.3334851 0.1153589,0.26079 0.1285322,0.3514079 0.059531,0.4161677 -0.06648,0.0624 -0.096611,0.059375 -0.1223699,-0.011024 -0.02653,-0.0726 -0.057717,-0.074017 -0.1378037,-0.00772 -0.0835,0.0693 -0.094216,0.063127 -0.057326,-0.033073 0.02535,-0.0661 0.00984,-0.1190625 -0.034727,-0.1190625 -0.04407,0 -0.079926,0.031404 -0.079926,0.070004 0,0.1707498 -0.1881782,-0.022548 -0.2022961,-0.2078081 C 4.534791,3.60303 4.579196,3.5146252 4.7094108,3.4293054 c 0.0984,-0.0645 0.1980415,-0.1174088 0.2215884,-0.1174088 z m 0.8714715,5.512e-4 c -0.01756,0 -0.052009,0.032409 -0.076619,0.072209 -0.02461,0.0398 -0.010199,0.072209 0.03197,0.072209 0.04216,0 0.076619,-0.032409 0.076619,-0.072209 0,-0.0398 -0.01441,-0.072209 -0.03197,-0.072209 z m -2.5427562,0.00772 c 0.01324,0.002 0.049438,0.045142 0.1212675,0.1322917 0.1704628,0.2066802 0.1358045,0.4599066 -0.098117,0.7105166 -0.08362,0.0896 -0.178161,0.1631597 -0.2100128,0.1631597 -0.1279,0 -0.2909006,-0.4552806 -0.2469445,-0.6895705 0.05214,-0.27792 0.2289692,-0.3835676 0.2948999,-0.1758376 0.06284,0.1979999 0.206145,0.1782424 0.1559941,-0.021497 -0.02019,-0.0804 -0.030318,-0.1207725 -0.017088,-0.1190625 z M 3.0188335,3.457421 c -0.08136,0 -0.1572087,0.187852 -0.099219,0.2458422 0.08714,0.0871 0.1637109,0.039656 0.1637109,-0.1014239 0,-0.0796 -0.028932,-0.1444183 -0.064492,-0.1444183 z m 1.6977431,0.1444183 c -0.01756,0 -0.052009,0.03296 -0.076619,0.072761 -0.02461,0.0398 -0.0102,0.072209 0.03197,0.072209 0.04216,0 0.076619,-0.032409 0.076619,-0.072209 0,-0.0398 -0.014411,-0.072761 -0.031971,-0.072761 z m 0.3213585,0.072761 c -0.03981,0 -0.072209,0.032409 -0.072209,0.072209 0,0.0398 0.032389,0.072209 0.072209,0.072209 0.03981,0 0.072761,-0.032409 0.072761,-0.072209 0,-0.0398 -0.03294,-0.072209 -0.072761,-0.072209 z M 3.1825444,3.8267354 c -0.01553,-0.005 -0.010041,0.021582 0.01323,0.082682 0.03743,0.0983 0.010059,0.1270618 -0.1223699,0.1278819 -0.13672,7.903e-4 -0.1493014,0.015357 -0.062287,0.071658 0.05972,0.0386 0.1342534,0.070507 0.1653645,0.071107 0.1033159,0.002 0.1449945,-0.2244367 0.057326,-0.3114368 -0.02498,-0.024799 -0.041943,-0.038992 -0.051263,-0.041892 z m 4.1688413,0.2954511 c 0.07165,-0.004 0.074296,0.097199 0.070556,0.4029386 C 7.4153417,5.062025 7.294833,5.3861123 7.287445,4.8867223 7.281945,4.5154023 7.1657804,4.4174536 7.1165685,4.7423039 c -0.01879,0.1240499 -0.03403,0.070487 -0.04079,-0.1422135 -0.0086,-0.2702298 0.018118,-0.3573888 0.1289845,-0.4167189 0.06719,-0.0359 0.1140562,-0.059285 0.1466232,-0.061185 z m -1.28819,0.3665585 c 0.01906,0.005 0.040871,0.034714 0.063941,0.097014 0.02851,0.0771 0.028463,0.2701855 0,0.4288455 L 6.0753222,5.3028898 6.0196496,4.9644438 C 5.9747997,4.6914437 6.0060256,4.4747749 6.0631957,4.488745 Z m -2.027921,1.7192405 c -0.0354,0 -0.1083694,0.1548382 -0.1620574,0.3439584 -0.05449,0.1919396 -0.1085771,0.2878989 -0.122921,0.2171788 -0.04547,-0.22426 -0.1303359,-0.135721 -0.2254471,0.2353688 -0.05102,0.1990801 -0.1262402,0.3615972 -0.1670182,0.3615972 -0.04237,0 -0.054071,-0.069528 -0.027561,-0.1626085 0.113411,-0.3982799 0.1296131,-0.5611371 0.056224,-0.5611371 -0.04235,0 -0.098732,0.1472206 -0.1256772,0.3268706 -0.05384,0.3590499 -0.051105,0.355582 -0.3500216,0.4271919 -0.2040661,0.0489 -0.2083387,0.044293 -0.1659159,-0.1890669 0.02392,-0.13155 0.064851,-0.3128072 0.090951,-0.4023871 0.02675,-0.0918 0.015915,-0.1626085 -0.024805,-0.1626085 -0.0921,0 -0.2476011,0.6057228 -0.1923739,0.7496528 0.03206,0.0835 0.00385,0.098643 -0.1245749,0.065043 -0.0917,-0.024 -0.1313061,-0.055956 -0.087643,-0.070556 0.04979,-0.0166 0.065955,-0.1532791 0.042995,-0.3671093 -0.04389,-0.4087699 -0.053525,-0.4238292 -0.187413,-0.2899393 -0.06951,0.0695 -0.1030913,0.2532679 -0.1003213,0.5479079 0.0041,0.4401798 0.00558,0.443858 0.227652,0.470738 0.1229939,0.014901 0.451658,0.016659 0.7303601,0.00386 0.2786989,-0.012601 1.4506041,-0.037673 2.6044923,-0.055673 1.3790949,-0.0215 2.1071083,-0.058921 2.1238322,-0.1091407 0.014,-0.042 0.09289,-0.076068 0.1758377,-0.076068 0.031998,0 0.051922,-0.00629 0.070556,-0.012127 a 3.8601822,4.1032308 0 0 0 0.028663,-0.039688 c -0.028839,-0.028043 -0.1802142,-0.041685 -0.3373443,-0.030316 -0.2611348,0.018799 -0.2866319,0.0051 -0.2866319,-0.1559938 0,-0.0972 0.069072,-0.264519 0.1532379,-0.3715191 0.08417,-0.1070102 0.1367618,-0.2110491 0.1168578,-0.2309594 -0.07529,-0.0753 -0.3423048,0.362046 -0.3423048,0.5605863 0,0.1315996 -0.037934,0.2072569 -0.1036283,0.2072566 -0.1125071,0 -0.066385,-0.2613674 0.1014233,-0.5749174 0.04734,-0.0886 0.069969,-0.1780876 0.04961,-0.1984375 -0.05277,-0.0528 -0.3367927,0.5240982 -0.3367927,0.6840581 0,0.10419 -0.062483,0.1374118 -0.2838758,0.1504818 -0.1560291,0.009 -0.3060573,-0.019541 -0.3334853,-0.063941 -0.02743,-0.0444 -0.00935,-0.2257786 0.040239,-0.4029385 0.04952,-0.17716 0.071547,-0.3413131 0.048507,-0.3643532 -0.02305,-0.023001 -0.095506,0.1410931 -0.1604038,0.3643532 -0.06745,0.2320298 -0.1590376,0.4056944 -0.2144229,0.4056944 -0.08077,0 -0.081203,-0.059987 -0.00165,-0.3615972 0.05252,-0.19907 0.069171,-0.3621484 0.036931,-0.3621484 -0.03224,0 -0.097764,0.1630784 -0.1455206,0.3621484 -0.04776,0.1990703 -0.1080575,0.3611149 -0.1339455,0.3604949 -0.151919,-0.003 -0.2472371,-0.1628569 -0.25411,-0.4249869 -0.0043,-0.16379 -0.036609,-0.2976564 -0.072209,-0.2976564 -0.03561,0 -0.049648,0.1596426 -0.030868,0.3549828 0.03332,0.3468198 0.029339,0.3560586 -0.1830033,0.3985285 -0.119599,0.023901 -0.2278541,0.033345 -0.24033,0.020946 -0.01247,-0.0125 0.011135,-0.1444978 0.052366,-0.2937979 0.04122,-0.1492998 0.062393,-0.326679 0.046853,-0.3941188 -0.02681,-0.1163402 -0.2158283,0.4169221 -0.2204861,0.622322 -0.0012,0.0515 -0.047836,0.07617 -0.1041798,0.05457 -0.05634,-0.021601 -0.2018501,-0.039687 -0.3230121,-0.039688 -0.21052,0 -0.2180186,-0.010017 -0.1703256,-0.2348176 0.119391,-0.5627701 0.134114,-0.7280357 0.061185,-0.6829558 -0.04087,0.0252 -0.1169402,0.2389265 -0.169223,0.4745965 -0.06646,0.2995498 -0.1235535,0.4174741 -0.1901692,0.3919141 -0.118837,-0.0456 -0.1165459,-0.1970956 0.00827,-0.5468056 0.05343,-0.1497598 0.073006,-0.2871735 0.043546,-0.3053732 -0.06901,-0.0426 -0.1973653,0.23975 -0.2596224,0.5716101 -0.02681,0.1428998 -0.077621,0.2596224 -0.1129989,0.2596224 -0.09438,0 -0.078364,-0.2369374 0.034727,-0.5159375 C 4.0517101,6.4914013 4.1086378,6.2079855 4.0352747,6.2079855 Z M 6.008074,6.5453292 c -0.0067,0.002 -0.014935,0.010406 -0.024804,0.024805 -0.04096,0.0597 -0.074897,0.2683733 -0.075517,0.4641232 -0.0014,0.4635099 0.040697,0.4061048 0.1014239,-0.1383549 0.02781,-0.2493403 0.028067,-0.3592831 -0.0011,-0.3505731 z m 1.0147873,0.00496 c -0.0052,-0.002 -0.012638,0.00389 -0.022049,0.019293 -0.03685,0.0597 -0.085832,0.2716575 -0.1091404,0.4707377 -0.02783,0.23774 -0.02149,0.2996686 0.01819,0.1807986 0.08785,-0.26319 0.1494232,-0.6580291 0.112999,-0.670829 z m -1.520803,0.07717 c -0.03091,-0.003 -0.093051,0.1672593 -0.1378037,0.448689 -0.03518,0.2212202 -0.028131,0.3027192 0.022049,0.2535592 0.04064,-0.0398 0.094824,-0.2352878 0.1201651,-0.4343578 0.02333,-0.1832599 0.01679,-0.2660503 -0.00441,-0.2678904 z m -2.3586499,0.019292 c -0.0131,0.004 -0.037314,0.021613 -0.074414,0.051814 -0.06284,0.0511 -0.128732,0.1894279 -0.146072,0.3075779 -0.03661,0.2494402 0.053965,0.2940559 0.1063845,0.052365 0.01943,-0.0896 0.062329,-0.2279379 0.094809,-0.3075779 0.03196,-0.0783 0.041123,-0.1107398 0.019293,-0.1041798 z M 4.9078485,6.78676 c -0.06645,0 -0.2315106,0.369351 -0.2315106,0.517591 0,0.1362301 0.1316524,0.050472 0.1725304,-0.1124478 0.02405,-0.0958 0.063854,-0.2265191 0.088194,-0.2899393 0.02434,-0.0634 0.010966,-0.1152039 -0.029214,-0.1152039 z m -2.594019,0.3147438 c 0.0066,9.878e-4 0.01393,0.012024 0.0226,0.033624 0.0209,0.0523 0.018518,0.1148563 -0.00551,0.1389061 -0.02405,0.024 -0.041174,-0.01906 -0.038034,-0.09536 0.0022,-0.0527 0.00997,-0.07887 0.020946,-0.07717 z m 1.3030727,0.072211 c 0.0066,9.878e-4 0.01394,0.012023 0.0226,0.033624 0.0209,0.0523 0.018518,0.1148464 -0.00551,0.1389064 -0.02405,0.024099 -0.041174,-0.018509 -0.038034,-0.094809 0.0022,-0.0527 0.00997,-0.079421 0.020946,-0.077721 z"
       id="path4599-9" />
  </g>
  <g
     transform="translate(-0.20019774,0.0571878)"
     id="layer1" />
</svg>
