<?xml version="1.0" encoding="UTF-8" standalone="no"?>
<svg
   xmlns:dc="http://purl.org/dc/elements/1.1/"
   xmlns:cc="http://creativecommons.org/ns#"
   xmlns:rdf="http://www.w3.org/1999/02/22-rdf-syntax-ns#"
   xmlns:svg="http://www.w3.org/2000/svg"
   xmlns="http://www.w3.org/2000/svg"
   id="svg8"
   version="1.1"
   viewBox="0 0 15.773713 14.287499"
   height="14.287499mm"
   width="15.773713mm">
  <defs
     id="defs2" />
  <metadata
     id="metadata5">
    <rdf:RDF>
      <cc:Work
         rdf:about="">
        <dc:format>image/svg+xml</dc:format>
        <dc:type
           rdf:resource="http://purl.org/dc/dcmitype/StillImage" />
        <dc:title></dc:title>
      </cc:Work>
    </rdf:RDF>
  </metadata>
  <g
     transform="translate(46.031297,-131.18631)"
     id="layer1">
    <path
       id="path819"
       d="m -8.202083,133.22288 a 5.2916667,5.2916667 0 0 0 -5.291667,5.29166 5.2916667,5.2916667 0 0 0 5.291667,5.29167 5.2916667,5.2916667 0 0 0 5.2916667,-5.29167 5.2916667,5.2916667 0 0 0 -5.2916667,-5.29166 z m 1.1167032,2.07542 1.2579519,0.10188 c 0.071921,0.001 0.1239794,0.0295 0.1776684,0.0694 0.043712,0.0533 0.075546,0.10835 0.084159,0.16684 0.1446976,0.98277 0.033185,1.93142 -0.3341743,2.84614 -0.3708045,0.89133 -0.9176,1.64151 -1.6659497,2.24178 -0.7700267,0.61541 -1.6463288,0.99513 -2.6291005,1.13983 -0.0702,0.0103 -0.130378,0.007 -0.184067,-0.0325 -0.06367,-0.0265 -0.10729,-0.0799 -0.117625,-0.15011 l -0.460167,-1.17527 c -0.03201,-0.055 -0.0287,-0.1151 -0.0039,-0.19046 0.01479,-0.0619 0.05432,-0.11588 0.121071,-0.14962 l 1.2279305,-0.75447 c 0.043353,-0.0303 0.1018107,-0.0388 0.1737312,-0.0374 0.060221,0.003 0.1121678,0.031 0.1658568,0.0709 l 0.6767152,0.61766 c 0.4252801,-0.27778 0.7935214,-0.61867 1.0911109,-1.03304 0.299312,-0.40266 0.5313337,-0.85531 0.6747467,-1.3426 l -0.7879428,-0.48182 c -0.051966,-0.0282 -0.09436,-0.0697 -0.1146724,-0.12649 -0.032012,-0.055 -0.028813,-0.11534 -0.015749,-0.18898 l 0.3686253,-1.39281 c 0.01651,-0.0502 0.044721,-0.10221 0.1097509,-0.14765 0.055053,-0.032 0.1121461,-0.0525 0.1840666,-0.0512 z"
       style="opacity:1;fill:#449db2;fill-opacity:1;stroke:none;stroke-width:0.49921381;stroke-miterlimit:4;stroke-dasharray:none;stroke-opacity:1" />
    <path
       id="rect850"
       transform="matrix(0.26458333,0,0,0.26458333,-13.758333,132.95829)"
       d="M -121.97656,-6.6972656 V 47.302734 h 59.617185 V -6.6972656 Z m 10.93164,9.2128906 h 37.753904 c 0.363008,0 0.725792,0.1808693 0.998047,0.453125 0.272256,0.2722557 0.453125,0.6369924 0.453125,1 v 3.6289062 c 0,0.4537596 -0.180869,0.8175881 -0.453125,1.0898438 -0.272255,0.2722557 -0.635039,0.3632812 -0.998047,0.3632812 h -37.753904 c -0.45376,0 -0.81564,-0.091025 -1.08789,-0.3632812 -0.27226,-0.2722557 -0.36328,-0.6360842 -0.36328,-1.0898438 V 3.96875 c 0,-0.3630076 0.091,-0.7277443 0.36328,-1 0.27225,-0.2722557 0.63413,-0.453125 1.08789,-0.453125 z m 0,14.521484 h 37.753904 c 0.363008,0 0.725792,0.18087 0.998047,0.453125 0.272256,0.272256 0.453125,0.63504 0.453125,0.998047 v 3.63086 c 0,0.453759 -0.180869,0.815635 -0.453125,1.08789 -0.272255,0.272256 -0.635039,0.363281 -0.998047,0.363281 h -37.753904 c -0.45376,0 -0.81564,-0.09103 -1.08789,-0.363281 -0.27226,-0.272255 -0.36328,-0.634131 -0.36328,-1.08789 v -3.63086 c 0,-0.363007 0.091,-0.725791 0.36328,-0.998047 0.27225,-0.272255 0.63413,-0.453125 1.08789,-0.453125 z m 0,14.519532 h 37.753904 c 0.363008,0 0.725792,0.180869 0.998047,0.453125 0.272256,0.272255 0.453125,0.635039 0.453125,0.998046 v 3.63086 c 0,0.453759 -0.180869,0.817588 -0.453125,1.089844 -0.272255,0.272255 -0.635039,0.361328 -0.998047,0.361328 h -37.753904 c -0.45376,0 -0.81564,-0.08907 -1.08789,-0.361328 -0.27226,-0.272256 -0.36328,-0.636085 -0.36328,-1.089844 v -3.63086 c 0,-0.363007 0.091,-0.725791 0.36328,-0.998046 0.27225,-0.272256 0.63413,-0.453125 1.08789,-0.453125 z"
       style="opacity:1;fill:#449db2;fill-opacity:1;stroke:none;stroke-width:6.1094017;stroke-miterlimit:4;stroke-dasharray:none;stroke-opacity:1" />
  </g>
</svg>
